<svg width="24" height="24" viewBox="0 0 24 24" fill="none" xmlns="http://www.w3.org/2000/svg">
<path fill-rule="evenodd" clip-rule="evenodd" d="M11.8598 13.138H11.8868C14.4068 13.138 16.4558 11.088 16.4558 8.569C16.4558 6.05 14.4068 4 11.8868 4C9.36776 4 7.31877 6.05 7.31877 8.566C7.31377 9.783 7.78277 10.929 8.64077 11.792C9.49677 12.656 10.6398 13.134 11.8598 13.138ZM8.81877 8.569C8.81877 6.877 10.1948 5.5 11.8868 5.5C13.5788 5.5 14.9558 6.877 14.9558 8.569C14.9558 10.262 13.5788 11.638 11.8868 11.638H11.8618C11.0458 11.635 10.2798 11.314 9.70477 10.735C9.12977 10.156 8.81576 9.389 8.81877 8.569Z" fill="black"/>
<path d="M17.1448 11.5005C17.1978 11.8755 17.5188 12.1465 17.8868 12.1465C17.9208 12.1465 17.9558 12.1445 17.9908 12.1395C19.7658 11.8905 21.1068 10.3505 21.1108 8.55551C21.1108 6.77251 19.8338 5.26851 18.0758 4.97951C17.6648 4.91451 17.2818 5.18851 17.2138 5.59751C17.1468 6.00651 17.4238 6.39251 17.8318 6.45951C18.8628 6.62851 19.6108 7.51051 19.6108 8.55351C19.6088 9.60551 18.8238 10.5075 17.7838 10.6535C17.3728 10.7105 17.0878 11.0895 17.1448 11.5005Z" fill="black"/>
<path d="M20.1604 18.0482C20.2744 18.3472 20.5594 18.5312 20.8614 18.5312C20.9504 18.5312 21.0404 18.5152 21.1284 18.4822C22.5584 17.9372 22.7724 16.9442 22.7724 16.4002C22.7724 15.5092 22.2634 14.3712 19.8404 14.0082C19.4274 13.9552 19.0474 14.2282 18.9864 14.6382C18.9254 15.0492 19.2084 15.4302 19.6174 15.4922C20.7154 15.6562 21.2724 15.9622 21.2724 16.4002C21.2724 16.5372 21.2724 16.8222 20.5944 17.0802C20.2074 17.2272 20.0124 17.6612 20.1604 18.0482Z" fill="black"/>
<path fill-rule="evenodd" clip-rule="evenodd" d="M11.8867 20.7909C10.2277 20.7909 5.17773 20.7909 5.17773 17.5959C5.17773 14.4139 10.2277 14.4139 11.8867 14.4139C13.5457 14.4139 18.5947 14.4139 18.5947 17.6129C18.5947 20.7909 13.7217 20.7909 11.8867 20.7909ZM11.8867 15.9139C9.51073 15.9139 6.67773 16.2059 6.67773 17.5959C6.67773 18.9969 9.51073 19.2909 11.8867 19.2909C14.2627 19.2909 17.0947 18.9999 17.0947 17.6129C17.0947 16.2089 14.2627 15.9139 11.8867 15.9139Z" fill="black"/>
<path d="M5.88572 12.1465C5.85172 12.1465 5.81672 12.1445 5.78172 12.1395C4.00672 11.8905 2.66672 10.3505 2.66272 8.55745C2.66272 6.77245 3.93972 5.26845 5.69772 4.97945C6.11872 4.91345 6.49172 5.19045 6.55972 5.59745C6.62672 6.00645 6.34972 6.39245 5.94172 6.45945C4.91072 6.62845 4.16272 7.51045 4.16272 8.55545C4.16472 9.60545 4.94972 10.5085 5.98872 10.6535C6.39972 10.7105 6.68472 11.0894 6.62772 11.5005C6.57472 11.8755 6.25372 12.1465 5.88572 12.1465Z" fill="black"/>
<path d="M2.64512 18.4822C2.73312 18.5152 2.82312 18.5312 2.91212 18.5312C3.21412 18.5312 3.49912 18.3472 3.61312 18.0482C3.76112 17.6612 3.56612 17.2272 3.17912 17.0802C2.50012 16.8212 2.50012 16.5372 2.50012 16.4002C2.50012 15.9622 3.05712 15.6562 4.15512 15.4922C4.56412 15.4302 4.84712 15.0492 4.78612 14.6382C4.72412 14.2282 4.34612 13.9562 3.93312 14.0082C1.50912 14.3712 1.00012 15.5102 1.00012 16.4002C1.00012 16.9432 1.21412 17.9362 2.64512 18.4822Z" fill="black"/>
</svg>
