<svg width="24" height="24" viewBox="0 0 24 24" fill="none" xmlns="http://www.w3.org/2000/svg">
<path fill-rule="evenodd" clip-rule="evenodd" d="M4.69275 7H8.8466V9.76923H4.69275V7Z" stroke="#3D3D3D" stroke-width="1.5" stroke-linecap="round" stroke-linejoin="round"/>
<path d="M8.84659 20.8462L9.9949 16.2548C10.1367 15.6869 9.90611 15.0912 9.4189 14.7668C8.61157 14.2287 8.06319 13.3802 7.90413 12.4231L7.46198 9.76923H8.84659V7C8.84659 6.2353 9.4665 5.61539 10.2312 5.61539H15.7697C16.5344 5.61539 17.1543 6.2353 17.1543 7V11.8462C17.1322 12.7675 16.9627 13.6794 16.6521 14.5471C16.5274 15.0465 16.5274 15.5689 16.6521 16.0683L17.8466 20.8462" stroke="#3D3D3D" stroke-width="1.5" stroke-linecap="round" stroke-linejoin="round"/>
<path fill-rule="evenodd" clip-rule="evenodd" d="M3.30814 3.53846C2.54344 3.53846 1.92352 4.15838 1.92352 4.92308V12.5385C1.92352 13.3032 2.54344 13.9231 3.30814 13.9231C4.07284 13.9231 4.69275 13.3032 4.69275 12.5385V4.92308C4.69275 4.15838 4.07284 3.53846 3.30814 3.53846Z" stroke="#3D3D3D" stroke-width="1.5" stroke-linecap="round" stroke-linejoin="round"/>
<path fill-rule="evenodd" clip-rule="evenodd" d="M21.3081 3.53846C20.5434 3.53846 19.9235 4.15838 19.9235 4.92308V12.5385C19.9235 13.3032 20.5434 13.9231 21.3081 13.9231C22.0728 13.9231 22.6928 13.3032 22.6928 12.5385V4.92308C22.6928 4.15838 22.0728 3.53846 21.3081 3.53846Z" stroke="#3D3D3D" stroke-width="1.5" stroke-linecap="round" stroke-linejoin="round"/>
<path fill-rule="evenodd" clip-rule="evenodd" d="M17.1543 7H19.9235V9.76923H17.1543V7Z" stroke="#3D3D3D" stroke-width="1.5" stroke-linecap="round" stroke-linejoin="round"/>
<path d="M11.6158 8.38462V5.61539" stroke="#3D3D3D" stroke-width="1.5" stroke-linecap="round" stroke-linejoin="round"/>
<path d="M14.3851 8.38462V5.61539" stroke="#3D3D3D" stroke-width="1.5" stroke-linecap="round" stroke-linejoin="round"/>
</svg>
